<mxfile host="app.diagrams.net" modified="2024-04-09T18:59:51.194Z" agent="Mozilla/5.0 (Windows NT 10.0; Win64; x64) AppleWebKit/537.36 (KHTML, like Gecko) Chrome/123.0.0.0 Safari/537.36" etag="SAri3fDUvztMg3mhwGIX" version="24.2.3" type="device" pages="2">
  <diagram name="Page-1" id="JzbWGpq1LjUUj12d7bZa">
    <mxGraphModel dx="3592" dy="1048" grid="1" gridSize="10" guides="1" tooltips="1" connect="1" arrows="1" fold="1" page="1" pageScale="1" pageWidth="827" pageHeight="1169" background="#000000" math="0" shadow="0">
      <root>
        <mxCell id="0" />
        <mxCell id="1" parent="0" />
        <mxCell id="kKaAIAEBYT0fWkHqITiP-12" value="" style="ellipse;whiteSpace=wrap;html=1;fillStyle=hatch;fillColor=none;strokeColor=#FFFFFF;fontColor=#FFFFFF;fontSize=14;" parent="1" vertex="1">
          <mxGeometry x="-505" y="395" width="510" height="640" as="geometry" />
        </mxCell>
        <mxCell id="OK2ciWBEZwMYy6PEidgr-48" value="" style="rounded=0;whiteSpace=wrap;html=1;fillColor=none;strokeColor=#FFFFFF;fontSize=14;" parent="1" vertex="1">
          <mxGeometry x="821" y="530" width="140" height="140" as="geometry" />
        </mxCell>
        <mxCell id="OK2ciWBEZwMYy6PEidgr-27" value="" style="rounded=0;whiteSpace=wrap;html=1;fillColor=none;strokeColor=#FFFFFF;fontSize=14;" parent="1" vertex="1">
          <mxGeometry x="550" y="255" width="140" height="140" as="geometry" />
        </mxCell>
        <mxCell id="OK2ciWBEZwMYy6PEidgr-15" value="PLACE 1:&amp;nbsp;&lt;div style=&quot;font-size: 14px;&quot;&gt;First Access point after login.&amp;nbsp;&lt;/div&gt;" style="rounded=0;whiteSpace=wrap;html=1;fillColor=none;fontColor=#FFFFFF;strokeColor=#FFFFFF;fontSize=14;" parent="1" vertex="1">
          <mxGeometry x="290" y="260" width="140" height="390" as="geometry" />
        </mxCell>
        <mxCell id="OK2ciWBEZwMYy6PEidgr-2" value="STORY 1" style="ellipse;shape=doubleEllipse;whiteSpace=wrap;html=1;aspect=fixed;strokeColor=#FFFFFF;fontSize=14;" parent="1" vertex="1">
          <mxGeometry x="110" y="290" width="80" height="80" as="geometry" />
        </mxCell>
        <mxCell id="OK2ciWBEZwMYy6PEidgr-3" value="STORY 2" style="ellipse;shape=doubleEllipse;whiteSpace=wrap;html=1;aspect=fixed;strokeColor=#FFFFFF;fontSize=14;" parent="1" vertex="1">
          <mxGeometry x="110" y="560" width="80" height="80" as="geometry" />
        </mxCell>
        <mxCell id="OK2ciWBEZwMYy6PEidgr-4" value="" style="shape=flexArrow;endArrow=classic;html=1;rounded=0;strokeColor=#FFFFFF;fontSize=14;" parent="1" edge="1">
          <mxGeometry width="50" height="50" relative="1" as="geometry">
            <mxPoint x="200" y="330" as="sourcePoint" />
            <mxPoint x="250" y="330" as="targetPoint" />
          </mxGeometry>
        </mxCell>
        <mxCell id="OK2ciWBEZwMYy6PEidgr-30" style="edgeStyle=orthogonalEdgeStyle;rounded=0;orthogonalLoop=1;jettySize=auto;html=1;fontColor=#FFFFFF;strokeColor=#FFFFFF;fontSize=14;" parent="1" edge="1">
          <mxGeometry relative="1" as="geometry">
            <mxPoint x="690" y="314.86" as="sourcePoint" />
            <mxPoint x="825" y="314.86" as="targetPoint" />
            <Array as="points">
              <mxPoint x="770" y="314.86" />
              <mxPoint x="770" y="314.86" />
            </Array>
          </mxGeometry>
        </mxCell>
        <mxCell id="OK2ciWBEZwMYy6PEidgr-6" value="NEWS" style="rounded=0;whiteSpace=wrap;html=1;fontColor=#000000;strokeColor=#000000;fontSize=14;" parent="1" vertex="1">
          <mxGeometry x="560" y="295" width="120" height="60" as="geometry" />
        </mxCell>
        <mxCell id="OK2ciWBEZwMYy6PEidgr-23" value="Read More" style="edgeStyle=orthogonalEdgeStyle;rounded=0;orthogonalLoop=1;jettySize=auto;html=1;exitX=0.833;exitY=0.313;exitDx=0;exitDy=0;entryX=0;entryY=0.5;entryDx=0;entryDy=0;fontColor=#FFFFFF;fillColor=none;labelBackgroundColor=none;strokeColor=#FFFFFF;exitPerimeter=0;fontSize=14;" parent="1" edge="1">
          <mxGeometry x="0.2381" y="10" relative="1" as="geometry">
            <mxPoint x="919.96" y="299.8" as="sourcePoint" />
            <mxPoint x="1030" y="299.82000000000005" as="targetPoint" />
            <Array as="points">
              <mxPoint x="970" y="300.02000000000004" />
              <mxPoint x="970" y="300.02000000000004" />
            </Array>
            <mxPoint as="offset" />
          </mxGeometry>
        </mxCell>
        <mxCell id="OK2ciWBEZwMYy6PEidgr-9" value="NEWS LIST&lt;div style=&quot;font-size: 14px;&quot;&gt;&lt;br style=&quot;font-size: 14px;&quot;&gt;&lt;div style=&quot;font-size: 14px;&quot;&gt;STATISTICS&lt;br style=&quot;font-size: 14px;&quot;&gt;&lt;/div&gt;&lt;/div&gt;" style="rounded=0;whiteSpace=wrap;html=1;fillColor=none;strokeColor=none;fontColor=#FFFFFF;fontSize=14;" parent="1" vertex="1">
          <mxGeometry x="820" y="285" width="120" height="60" as="geometry" />
        </mxCell>
        <mxCell id="OK2ciWBEZwMYy6PEidgr-16" style="edgeStyle=orthogonalEdgeStyle;rounded=0;orthogonalLoop=1;jettySize=auto;html=1;fontColor=#FFFFFF;fontSize=14;strokeColor=#FFFFFF;entryX=-0.025;entryY=0.494;entryDx=0;entryDy=0;entryPerimeter=0;exitX=1;exitY=0.166;exitDx=0;exitDy=0;exitPerimeter=0;" parent="1" source="OK2ciWBEZwMYy6PEidgr-15" edge="1">
          <mxGeometry relative="1" as="geometry">
            <mxPoint x="433.5" y="325.2" as="sourcePoint" />
            <mxPoint x="550.0000000000002" y="324.78" as="targetPoint" />
            <Array as="points" />
          </mxGeometry>
        </mxCell>
        <mxCell id="OK2ciWBEZwMYy6PEidgr-21" value="Click on news icon" style="edgeLabel;html=1;align=center;verticalAlign=middle;resizable=0;points=[];fontColor=#FFFFFF;fontSize=14;labelBackgroundColor=none;" parent="OK2ciWBEZwMYy6PEidgr-16" vertex="1" connectable="0">
          <mxGeometry x="-0.188" y="3" relative="1" as="geometry">
            <mxPoint x="11" y="-12" as="offset" />
          </mxGeometry>
        </mxCell>
        <mxCell id="OK2ciWBEZwMYy6PEidgr-11" value="HOME PAGE" style="rounded=0;whiteSpace=wrap;html=1;fontColor=#000000;fontSize=14;" parent="1" vertex="1">
          <mxGeometry x="300" y="295" width="120" height="60" as="geometry" />
        </mxCell>
        <mxCell id="OK2ciWBEZwMYy6PEidgr-39" style="edgeStyle=orthogonalEdgeStyle;rounded=0;orthogonalLoop=1;jettySize=auto;html=1;entryX=0;entryY=0.5;entryDx=0;entryDy=0;fontColor=#FFFFFF;strokeColor=#FFFFFF;exitX=1.005;exitY=0.872;exitDx=0;exitDy=0;exitPerimeter=0;fontSize=14;" parent="1" source="OK2ciWBEZwMYy6PEidgr-15" target="OK2ciWBEZwMYy6PEidgr-38" edge="1">
          <mxGeometry relative="1" as="geometry">
            <mxPoint x="440" y="600" as="sourcePoint" />
            <Array as="points">
              <mxPoint x="510" y="600" />
              <mxPoint x="510" y="600" />
            </Array>
          </mxGeometry>
        </mxCell>
        <mxCell id="OK2ciWBEZwMYy6PEidgr-40" value="Click on list" style="edgeLabel;html=1;align=center;verticalAlign=middle;resizable=0;points=[];fontColor=#FFFFFF;labelBackgroundColor=none;fontSize=14;" parent="OK2ciWBEZwMYy6PEidgr-39" vertex="1" connectable="0">
          <mxGeometry x="-0.3689" y="-2" relative="1" as="geometry">
            <mxPoint x="21" y="-12" as="offset" />
          </mxGeometry>
        </mxCell>
        <mxCell id="OK2ciWBEZwMYy6PEidgr-13" value="" style="shape=flexArrow;endArrow=classic;html=1;rounded=0;strokeColor=#FFFFFF;fontSize=14;" parent="1" edge="1">
          <mxGeometry width="50" height="50" relative="1" as="geometry">
            <mxPoint x="200" y="599.4100000000001" as="sourcePoint" />
            <mxPoint x="250" y="599.4100000000001" as="targetPoint" />
          </mxGeometry>
        </mxCell>
        <mxCell id="OK2ciWBEZwMYy6PEidgr-24" style="edgeStyle=orthogonalEdgeStyle;rounded=0;orthogonalLoop=1;jettySize=auto;html=1;exitX=0.5;exitY=0;exitDx=0;exitDy=0;entryX=0.5;entryY=0;entryDx=0;entryDy=0;fontColor=#FFFFFF;strokeColor=#FFFFFF;fontSize=14;" parent="1" source="OK2ciWBEZwMYy6PEidgr-22" target="OK2ciWBEZwMYy6PEidgr-9" edge="1">
          <mxGeometry relative="1" as="geometry" />
        </mxCell>
        <mxCell id="OK2ciWBEZwMYy6PEidgr-34" value="Return" style="edgeLabel;html=1;align=center;verticalAlign=middle;resizable=0;points=[];fontColor=#FFFFFF;labelBackgroundColor=none;fontSize=14;" parent="OK2ciWBEZwMYy6PEidgr-24" vertex="1" connectable="0">
          <mxGeometry x="0.0512" y="1" relative="1" as="geometry">
            <mxPoint y="-11" as="offset" />
          </mxGeometry>
        </mxCell>
        <mxCell id="OK2ciWBEZwMYy6PEidgr-82" style="edgeStyle=orthogonalEdgeStyle;rounded=0;orthogonalLoop=1;jettySize=auto;html=1;exitX=0.5;exitY=0;exitDx=0;exitDy=0;entryX=0.5;entryY=0;entryDx=0;entryDy=0;fontColor=#FFFFFF;strokeColor=#FFFFFF;fontSize=14;" parent="1" source="OK2ciWBEZwMYy6PEidgr-22" target="OK2ciWBEZwMYy6PEidgr-15" edge="1">
          <mxGeometry relative="1" as="geometry">
            <Array as="points">
              <mxPoint x="1090" y="170" />
              <mxPoint x="360" y="170" />
            </Array>
          </mxGeometry>
        </mxCell>
        <mxCell id="OK2ciWBEZwMYy6PEidgr-83" value="HOME BUTTON" style="edgeLabel;html=1;align=center;verticalAlign=middle;resizable=0;points=[];fontColor=#FFFFFF;labelBackgroundColor=none;fontSize=14;" parent="OK2ciWBEZwMYy6PEidgr-82" vertex="1" connectable="0">
          <mxGeometry x="-0.0681" y="-2" relative="1" as="geometry">
            <mxPoint y="-8" as="offset" />
          </mxGeometry>
        </mxCell>
        <mxCell id="OK2ciWBEZwMYy6PEidgr-22" value="+ INFORMATION" style="rounded=0;whiteSpace=wrap;html=1;fillColor=none;fontColor=#FFFFFF;strokeColor=none;fontSize=14;" parent="1" vertex="1">
          <mxGeometry x="1030" y="270" width="120" height="60" as="geometry" />
        </mxCell>
        <mxCell id="OK2ciWBEZwMYy6PEidgr-28" value="PLACE 2" style="text;html=1;align=center;verticalAlign=middle;resizable=0;points=[];autosize=1;strokeColor=none;fillColor=none;fontColor=#FFFFFF;fontSize=14;" parent="1" vertex="1">
          <mxGeometry x="580" y="255" width="80" height="30" as="geometry" />
        </mxCell>
        <mxCell id="OK2ciWBEZwMYy6PEidgr-32" value="Choose new" style="text;html=1;align=center;verticalAlign=middle;resizable=0;points=[];autosize=1;strokeColor=none;fillColor=none;fontColor=#FFFFFF;fontSize=14;" parent="1" vertex="1">
          <mxGeometry x="704" y="289" width="100" height="30" as="geometry" />
        </mxCell>
        <mxCell id="OK2ciWBEZwMYy6PEidgr-45" style="edgeStyle=orthogonalEdgeStyle;rounded=0;orthogonalLoop=1;jettySize=auto;html=1;exitX=1;exitY=0.5;exitDx=0;exitDy=0;fontColor=#FFFFFF;strokeColor=#FFFFFF;entryX=0;entryY=0.5;entryDx=0;entryDy=0;fontSize=14;" parent="1" source="OK2ciWBEZwMYy6PEidgr-38" target="OK2ciWBEZwMYy6PEidgr-48" edge="1">
          <mxGeometry relative="1" as="geometry">
            <mxPoint x="770" y="600" as="targetPoint" />
          </mxGeometry>
        </mxCell>
        <mxCell id="OK2ciWBEZwMYy6PEidgr-46" value="Choose supermarket" style="edgeLabel;html=1;align=center;verticalAlign=middle;resizable=0;points=[];fontColor=#FFFFFF;labelBackgroundColor=none;fontSize=14;" parent="OK2ciWBEZwMYy6PEidgr-45" vertex="1" connectable="0">
          <mxGeometry x="0.0003" y="-2" relative="1" as="geometry">
            <mxPoint x="-5" y="-12" as="offset" />
          </mxGeometry>
        </mxCell>
        <mxCell id="OK2ciWBEZwMYy6PEidgr-38" value="SUPERMARKET LIST" style="rounded=0;whiteSpace=wrap;html=1;fillColor=none;fontColor=#FFFFFF;fontSize=14;" parent="1" vertex="1">
          <mxGeometry x="550" y="570" width="120" height="60" as="geometry" />
        </mxCell>
        <mxCell id="OK2ciWBEZwMYy6PEidgr-51" style="edgeStyle=orthogonalEdgeStyle;rounded=0;orthogonalLoop=1;jettySize=auto;html=1;entryX=0;entryY=0.5;entryDx=0;entryDy=0;fontColor=#FFFFFF;fontSize=14;strokeColor=#FFFFFF;exitX=1;exitY=0.5;exitDx=0;exitDy=0;" parent="1" source="OK2ciWBEZwMYy6PEidgr-48" target="OK2ciWBEZwMYy6PEidgr-50" edge="1">
          <mxGeometry relative="1" as="geometry">
            <mxPoint x="970" y="600" as="sourcePoint" />
            <Array as="points" />
          </mxGeometry>
        </mxCell>
        <mxCell id="OK2ciWBEZwMYy6PEidgr-41" value="CATEGORIES&lt;div style=&quot;font-size: 14px;&quot;&gt;supermarket list&lt;/div&gt;" style="rounded=0;whiteSpace=wrap;html=1;fontColor=#000000;fontSize=14;" parent="1" vertex="1">
          <mxGeometry x="831" y="570" width="120" height="60" as="geometry" />
        </mxCell>
        <mxCell id="OK2ciWBEZwMYy6PEidgr-49" value="PLACE 3" style="text;html=1;align=center;verticalAlign=middle;resizable=0;points=[];autosize=1;strokeColor=none;fillColor=none;fontColor=#FFFFFF;fontSize=14;" parent="1" vertex="1">
          <mxGeometry x="851" y="530" width="80" height="30" as="geometry" />
        </mxCell>
        <mxCell id="OK2ciWBEZwMYy6PEidgr-50" value="ALL PRODUCTS Meat list" style="rounded=0;whiteSpace=wrap;html=1;fontSize=14;fillColor=none;fontColor=#FFFFFF;strokeColor=none;" parent="1" vertex="1">
          <mxGeometry x="1100" y="570" width="120" height="60" as="geometry" />
        </mxCell>
        <mxCell id="OK2ciWBEZwMYy6PEidgr-53" style="edgeStyle=orthogonalEdgeStyle;rounded=0;orthogonalLoop=1;jettySize=auto;html=1;exitX=0.5;exitY=1;exitDx=0;exitDy=0;fontColor=#FFFFFF;fontSize=14;" parent="1" source="OK2ciWBEZwMYy6PEidgr-50" target="OK2ciWBEZwMYy6PEidgr-50" edge="1">
          <mxGeometry relative="1" as="geometry" />
        </mxCell>
        <mxCell id="OK2ciWBEZwMYy6PEidgr-77" value="&lt;span style=&quot;caret-color: rgb(31, 35, 40); font-family: -apple-system, BlinkMacSystemFont, &amp;quot;Segoe UI&amp;quot;, &amp;quot;Noto Sans&amp;quot;, Helvetica, Arial, sans-serif, &amp;quot;Apple Color Emoji&amp;quot;, &amp;quot;Segoe UI Emoji&amp;quot;; font-size: 14px; font-style: normal; font-variant-caps: normal; font-weight: 400; letter-spacing: normal; text-align: left; text-indent: 0px; text-transform: none; white-space: normal; word-spacing: 0px; text-size-adjust: auto; -webkit-text-stroke-width: 0px; text-decoration: none; float: none; display: inline !important;&quot;&gt;The user wants to find the most sustainable meat product in his supermarket and get information on it&lt;/span&gt;" style="text;whiteSpace=wrap;html=1;labelBackgroundColor=none;fontColor=#FFFFFF;fontSize=14;" parent="1" vertex="1">
          <mxGeometry x="50" y="660" width="230" height="60" as="geometry" />
        </mxCell>
        <mxCell id="OK2ciWBEZwMYy6PEidgr-78" style="edgeStyle=orthogonalEdgeStyle;rounded=0;orthogonalLoop=1;jettySize=auto;html=1;exitX=0.5;exitY=1;exitDx=0;exitDy=0;strokeColor=#FFFFFF;fontSize=14;" parent="1" edge="1">
          <mxGeometry relative="1" as="geometry">
            <mxPoint x="140" y="430" as="sourcePoint" />
            <mxPoint x="140" y="430" as="targetPoint" />
          </mxGeometry>
        </mxCell>
        <mxCell id="OK2ciWBEZwMYy6PEidgr-80" value="&lt;div style=&quot;font-size: 14px; white-space: nowrap;&quot;&gt;&lt;span style=&quot;font-size: 14px;&quot;&gt;The user want to access news about&lt;/span&gt;&lt;/div&gt;&lt;div style=&quot;font-size: 14px; white-space: nowrap;&quot;&gt;&lt;span style=&quot;font-size: 14px;&quot;&gt;meat production&amp;nbsp;&lt;/span&gt;&lt;span style=&quot;font-size: 14px;&quot;&gt;and meat quality&amp;nbsp;&lt;/span&gt;&lt;/div&gt;&lt;div style=&quot;font-size: 14px; white-space: nowrap;&quot;&gt;&lt;span style=&quot;font-size: 14px;&quot;&gt;in Portugal&lt;/span&gt;&lt;/div&gt;" style="text;whiteSpace=wrap;html=1;fontColor=#FFFFFF;fontSize=14;" parent="1" vertex="1">
          <mxGeometry x="50" y="385" width="230" height="60" as="geometry" />
        </mxCell>
        <mxCell id="OK2ciWBEZwMYy6PEidgr-84" value="STORY + FE ORCHESTRATION" style="whiteSpace=wrap;html=1;fillColor=none;strokeColor=#FFFFFF;fontColor=#FFFFFF;fontSize=14;" parent="1" vertex="1">
          <mxGeometry x="60" y="70" width="210" height="60" as="geometry" />
        </mxCell>
        <mxCell id="8" style="edgeStyle=none;html=1;exitX=1;exitY=0;exitDx=0;exitDy=0;entryX=0;entryY=0.5;entryDx=0;entryDy=0;strokeColor=#FFFFFF;" parent="1" source="2" target="OK2ciWBEZwMYy6PEidgr-3" edge="1">
          <mxGeometry relative="1" as="geometry">
            <Array as="points">
              <mxPoint x="-10" y="630" />
            </Array>
          </mxGeometry>
        </mxCell>
        <mxCell id="kKaAIAEBYT0fWkHqITiP-19" style="edgeStyle=none;html=1;exitX=0;exitY=0.5;exitDx=0;exitDy=0;entryX=0.5;entryY=0;entryDx=0;entryDy=0;fillColor=none;strokeColor=#FFFFFF;fontColor=#FFFFFF;fontSize=14;" parent="1" source="2" target="9" edge="1">
          <mxGeometry relative="1" as="geometry" />
        </mxCell>
        <mxCell id="kKaAIAEBYT0fWkHqITiP-22" style="edgeStyle=none;html=1;exitX=0;exitY=1;exitDx=0;exitDy=0;entryX=0.5;entryY=0;entryDx=0;entryDy=0;fillColor=none;strokeColor=#FFFFFF;fontColor=#FFFFFF;fontSize=14;" parent="1" source="2" target="kKaAIAEBYT0fWkHqITiP-9" edge="1">
          <mxGeometry relative="1" as="geometry" />
        </mxCell>
        <mxCell id="2" value="STORY 2 - Research Quality Meat &quot;from anywhere&quot;" style="ellipse;whiteSpace=wrap;html=1;fillColor=none;strokeColor=#FFFFFF;fontColor=#FFFFFF;fontSize=14;" parent="1" vertex="1">
          <mxGeometry x="-160" y="720" width="120" height="80" as="geometry" />
        </mxCell>
        <mxCell id="4" value="NARRATIVE&amp;nbsp;ARCH:&lt;br style=&quot;font-size: 14px;&quot;&gt;&quot;The All-In-One App for finding the best meat in Portugal.&quot;" style="whiteSpace=wrap;html=1;fillColor=none;strokeColor=#FFFFFF;fontColor=#FFFFFF;fontSize=14;" parent="1" vertex="1">
          <mxGeometry x="-360" y="440" width="210" height="60" as="geometry" />
        </mxCell>
        <mxCell id="7" style="edgeStyle=none;html=1;exitX=1;exitY=0;exitDx=0;exitDy=0;strokeColor=#FFFFFF;" parent="1" source="5" target="OK2ciWBEZwMYy6PEidgr-2" edge="1">
          <mxGeometry relative="1" as="geometry">
            <Array as="points">
              <mxPoint x="-70" y="380" />
            </Array>
          </mxGeometry>
        </mxCell>
        <mxCell id="5" value="STORY 1 - Meat News and Statistics" style="ellipse;whiteSpace=wrap;html=1;fillColor=none;strokeColor=#FFFFFF;fontColor=#FFFFFF;fontSize=14;" parent="1" vertex="1">
          <mxGeometry x="-230" y="545" width="120" height="80" as="geometry" />
        </mxCell>
        <mxCell id="kKaAIAEBYT0fWkHqITiP-18" style="edgeStyle=none;html=1;exitX=0.5;exitY=1;exitDx=0;exitDy=0;entryX=0.5;entryY=0;entryDx=0;entryDy=0;fillColor=none;strokeColor=#FFFFFF;fontColor=#FFFFFF;fontSize=14;" parent="1" source="6" target="9" edge="1">
          <mxGeometry relative="1" as="geometry" />
        </mxCell>
        <mxCell id="kKaAIAEBYT0fWkHqITiP-20" style="edgeStyle=none;html=1;exitX=0.5;exitY=1;exitDx=0;exitDy=0;entryX=0.5;entryY=0;entryDx=0;entryDy=0;fillColor=none;strokeColor=#FFFFFF;fontColor=#FFFFFF;fontSize=14;" parent="1" source="6" target="kKaAIAEBYT0fWkHqITiP-9" edge="1">
          <mxGeometry relative="1" as="geometry" />
        </mxCell>
        <mxCell id="6" value="STORY 3 - Scan meat in the supermarket" style="ellipse;whiteSpace=wrap;html=1;fillColor=none;strokeColor=#FFFFFF;fontColor=#FFFFFF;fontSize=14;" parent="1" vertex="1">
          <mxGeometry x="-310" y="660" width="120" height="80" as="geometry" />
        </mxCell>
        <mxCell id="kKaAIAEBYT0fWkHqITiP-23" style="edgeStyle=none;html=1;exitX=1;exitY=1;exitDx=0;exitDy=0;entryX=0.272;entryY=0.033;entryDx=0;entryDy=0;fillColor=none;strokeColor=#FFFFFF;fontColor=#FFFFFF;fontSize=14;entryPerimeter=0;" parent="1" source="9" target="kKaAIAEBYT0fWkHqITiP-10" edge="1">
          <mxGeometry relative="1" as="geometry" />
        </mxCell>
        <mxCell id="9" value="STORY 4 - Save favourite meat products" style="ellipse;whiteSpace=wrap;html=1;fillColor=none;strokeColor=#FFFFFF;fontColor=#FFFFFF;fontSize=14;" parent="1" vertex="1">
          <mxGeometry x="-430" y="770" width="120" height="80" as="geometry" />
        </mxCell>
        <mxCell id="kKaAIAEBYT0fWkHqITiP-9" value="STORY 5 - Consult reviews" style="ellipse;whiteSpace=wrap;html=1;fillColor=none;strokeColor=#FFFFFF;fontColor=#FFFFFF;fontSize=14;" parent="1" vertex="1">
          <mxGeometry x="-220" y="880" width="120" height="80" as="geometry" />
        </mxCell>
        <mxCell id="kKaAIAEBYT0fWkHqITiP-10" value="STORY 6 - Leave reviews" style="ellipse;whiteSpace=wrap;html=1;fillColor=none;strokeColor=#FFFFFF;fontColor=#FFFFFF;fontSize=14;" parent="1" vertex="1">
          <mxGeometry x="-400" y="890" width="120" height="80" as="geometry" />
        </mxCell>
        <mxCell id="kKaAIAEBYT0fWkHqITiP-15" style="edgeStyle=none;html=1;exitX=1;exitY=0.5;exitDx=0;exitDy=0;entryX=0;entryY=0;entryDx=0;entryDy=0;fillColor=none;strokeColor=#FFFFFF;fontColor=#FFFFFF;fontSize=14;" parent="1" source="kKaAIAEBYT0fWkHqITiP-14" target="5" edge="1">
          <mxGeometry relative="1" as="geometry" />
        </mxCell>
        <mxCell id="kKaAIAEBYT0fWkHqITiP-16" style="edgeStyle=none;html=1;exitX=1;exitY=1;exitDx=0;exitDy=0;entryX=0.5;entryY=0;entryDx=0;entryDy=0;fillColor=none;strokeColor=#FFFFFF;fontColor=#FFFFFF;fontSize=14;" parent="1" source="kKaAIAEBYT0fWkHqITiP-14" target="2" edge="1">
          <mxGeometry relative="1" as="geometry">
            <Array as="points">
              <mxPoint x="-190" y="640" />
            </Array>
          </mxGeometry>
        </mxCell>
        <mxCell id="kKaAIAEBYT0fWkHqITiP-17" style="edgeStyle=none;html=1;exitX=0.5;exitY=1;exitDx=0;exitDy=0;entryX=0;entryY=0;entryDx=0;entryDy=0;fillColor=none;strokeColor=#FFFFFF;fontColor=#FFFFFF;fontSize=14;" parent="1" source="kKaAIAEBYT0fWkHqITiP-14" target="6" edge="1">
          <mxGeometry relative="1" as="geometry" />
        </mxCell>
        <mxCell id="kKaAIAEBYT0fWkHqITiP-14" value="STORY 0 - Buy the best quality or value meat" style="ellipse;whiteSpace=wrap;html=1;fillColor=none;strokeColor=#FFFFFF;fontColor=#FFFFFF;fontSize=14;" parent="1" vertex="1">
          <mxGeometry x="-430" y="530" width="120" height="80" as="geometry" />
        </mxCell>
        <mxCell id="TPaHD6tG7CdkZMqWpLie-62" value="Access:Stats button" style="text;html=1;align=center;verticalAlign=middle;resizable=0;points=[];autosize=1;strokeColor=none;fillColor=none;fontColor=#FFFFFF;fontSize=14;" parent="1" vertex="1">
          <mxGeometry x="684" y="316" width="150" height="30" as="geometry" />
        </mxCell>
        <mxCell id="TPaHD6tG7CdkZMqWpLie-68" value="PLACE 4" style="text;html=1;align=center;verticalAlign=middle;resizable=0;points=[];autosize=1;strokeColor=none;fillColor=none;fontColor=#FFFFFF;fontSize=14;" parent="1" vertex="1">
          <mxGeometry x="1380" y="530" width="80" height="30" as="geometry" />
        </mxCell>
        <mxCell id="TPaHD6tG7CdkZMqWpLie-69" value="SELECTED&amp;nbsp;&lt;div&gt;meat product&lt;/div&gt;" style="rounded=0;whiteSpace=wrap;html=1;fontColor=#000000;fontSize=14;" parent="1" vertex="1">
          <mxGeometry x="1360" y="565" width="120" height="60" as="geometry" />
        </mxCell>
        <mxCell id="TPaHD6tG7CdkZMqWpLie-70" style="edgeStyle=orthogonalEdgeStyle;rounded=0;orthogonalLoop=1;jettySize=auto;html=1;entryX=0;entryY=0.5;entryDx=0;entryDy=0;fontColor=#FFFFFF;strokeColor=#FFFFFF;exitX=1.005;exitY=0.872;exitDx=0;exitDy=0;exitPerimeter=0;fontSize=14;" parent="1" edge="1">
          <mxGeometry relative="1" as="geometry">
            <mxPoint x="1230" y="599.48" as="sourcePoint" />
            <mxPoint x="1349" y="599.48" as="targetPoint" />
            <Array as="points">
              <mxPoint x="1309" y="599.48" />
              <mxPoint x="1309" y="599.48" />
            </Array>
          </mxGeometry>
        </mxCell>
        <mxCell id="TPaHD6tG7CdkZMqWpLie-71" value="Click on list" style="edgeLabel;html=1;align=center;verticalAlign=middle;resizable=0;points=[];fontColor=#FFFFFF;labelBackgroundColor=none;fontSize=14;" parent="TPaHD6tG7CdkZMqWpLie-70" vertex="1" connectable="0">
          <mxGeometry x="-0.3689" y="-2" relative="1" as="geometry">
            <mxPoint x="21" y="-12" as="offset" />
          </mxGeometry>
        </mxCell>
        <mxCell id="TPaHD6tG7CdkZMqWpLie-67" value="" style="rounded=0;whiteSpace=wrap;html=1;fillColor=none;strokeColor=#FFFFFF;fontSize=14;" parent="1" vertex="1">
          <mxGeometry x="1350" y="530" width="140" height="140" as="geometry" />
        </mxCell>
        <mxCell id="TPaHD6tG7CdkZMqWpLie-75" style="edgeStyle=orthogonalEdgeStyle;rounded=0;orthogonalLoop=1;jettySize=auto;html=1;entryX=0;entryY=0.5;entryDx=0;entryDy=0;fontColor=#FFFFFF;strokeColor=#FFFFFF;exitX=1.005;exitY=0.872;exitDx=0;exitDy=0;exitPerimeter=0;fontSize=14;" parent="1" edge="1">
          <mxGeometry relative="1" as="geometry">
            <mxPoint x="1490" y="599.47" as="sourcePoint" />
            <mxPoint x="1609" y="599.47" as="targetPoint" />
            <Array as="points">
              <mxPoint x="1569" y="599.47" />
              <mxPoint x="1569" y="599.47" />
            </Array>
          </mxGeometry>
        </mxCell>
        <mxCell id="TPaHD6tG7CdkZMqWpLie-76" value="Click on list" style="edgeLabel;html=1;align=center;verticalAlign=middle;resizable=0;points=[];fontColor=#FFFFFF;labelBackgroundColor=none;fontSize=14;" parent="TPaHD6tG7CdkZMqWpLie-75" vertex="1" connectable="0">
          <mxGeometry x="-0.3689" y="-2" relative="1" as="geometry">
            <mxPoint x="21" y="-12" as="offset" />
          </mxGeometry>
        </mxCell>
        <mxCell id="TPaHD6tG7CdkZMqWpLie-78" style="edgeStyle=orthogonalEdgeStyle;rounded=0;orthogonalLoop=1;jettySize=auto;html=1;entryX=0.571;entryY=1.005;entryDx=0;entryDy=0;fontColor=#FFFFFF;strokeColor=#FFFFFF;fontSize=14;entryPerimeter=0;" parent="1" target="OK2ciWBEZwMYy6PEidgr-15" edge="1">
          <mxGeometry relative="1" as="geometry">
            <Array as="points">
              <mxPoint x="1690" y="740" />
              <mxPoint x="370" y="740" />
            </Array>
            <mxPoint x="1690" y="650" as="sourcePoint" />
            <mxPoint x="870" y="829.95" as="targetPoint" />
          </mxGeometry>
        </mxCell>
        <mxCell id="TPaHD6tG7CdkZMqWpLie-79" value="HOME BUTTON" style="edgeLabel;html=1;align=center;verticalAlign=middle;resizable=0;points=[];fontColor=#FFFFFF;labelBackgroundColor=none;fontSize=14;" parent="TPaHD6tG7CdkZMqWpLie-78" vertex="1" connectable="0">
          <mxGeometry x="-0.0681" y="-2" relative="1" as="geometry">
            <mxPoint x="-102" y="-8" as="offset" />
          </mxGeometry>
        </mxCell>
        <mxCell id="K8Ub540TiSQldfig29rW-9" value="&lt;div style=&quot;font-size: 14px;&quot;&gt;MORE DETAILS&amp;nbsp;&lt;/div&gt;&lt;div style=&quot;font-size: 14px;&quot;&gt;&lt;br style=&quot;font-size: 14px;&quot;&gt;&lt;div style=&quot;font-size: 14px;&quot;&gt;CUSTOMER FEEDBACK&lt;/div&gt;&lt;/div&gt;" style="rounded=0;whiteSpace=wrap;html=1;fillColor=none;strokeColor=none;fontColor=#FFFFFF;fontSize=14;" vertex="1" parent="1">
          <mxGeometry x="1610" y="570" width="190" height="60" as="geometry" />
        </mxCell>
      </root>
    </mxGraphModel>
  </diagram>
  <diagram id="aaODrygaZ3-ADn6LBMto" name="Page-2">
    <mxGraphModel dx="710" dy="692" grid="1" gridSize="10" guides="1" tooltips="1" connect="1" arrows="1" fold="1" page="1" pageScale="1" pageWidth="850" pageHeight="1100" math="0" shadow="0">
      <root>
        <mxCell id="0" />
        <mxCell id="1" parent="0" />
      </root>
    </mxGraphModel>
  </diagram>
</mxfile>
